# xmcd
#
# Track frame offsets: 
#        150
#        11303
#        24338
#        37170
#        48717
#        57938
#        68168
#        79668
#        89174
#        101822
#        114124
#        124800
#        135735
#        150826
#        165433
#        179710
#        192389
#        197546
#        209071
#        223291
#        231156
#        242016
#        253500
#        266208
#        278482
#        292269
#        305411
#        322304
#        336699
#
# Disc length: 4649 seconds
#
# Revision: 2
# Processed by: cddbd v1.5.2PL0 Copyright (c) Steve Scherf et al.
# Submitted via: ExactAudioCopyFreeDBPlugin 1.0
#
DISCID=c212271d
DTITLE=Various Artist - Blacks and the Birth of the Recording Industr
DTITLE=y, 1891-1922
DYEAR=2005
DGENRE=Blues
TTITLE0=Unique Quartette - Mamma's Black Baby Boy
TTITLE1=Standard Quartette - Keep Movin'
TTITLE2=Unique Quartette - Who Broke the Lock
TTITLE3=Oriole Quartette - Brother Michael, Won't You Hand Down That R
TTITLE3=ope
TTITLE4=Cousins and DeMoss - Poor Mourner
TTITLE5=Cousins and DeMoss - Who Broke the Lock
TTITLE6=Dinwiddie Colored Quartette - Down on the Old Camp Ground
TTITLE7=Polk Miller's Old South Quartet - Jerusalem Mornin'
TTITLE8=Fisk University Jubilee Quartet - Little David, Play on Yo' Ha
TTITLE8=rp - Shout All Over God's Heaven
TTITLE9=Apollo Jubilee Quartette - Swing Low, Sweet Chariot
TTITLE10=Apollo Jubilee Quartette - Shout All Over God's Heaven
TTITLE11=Tuskegee Institute Singers - Good News
TTITLE12=Right Quintette - The Rain Song
TTITLE13=Four Harmony Kings - Goodnight Angeline
TTITLE14=Charley Case - Experiences in the Show Business
TTITLE15=George W. Johnson - The Whistling Coon
TTITLE16=Louis Vasnier - Adam and Eve and De Winter Apple (excerpt)
TTITLE17=George W. Johnson - The Laughing Song
TTITLE18=Spencer, Williams and Quinn's Imperial Minstrels - Minstrel F
TTITLE18=irst Part (featuring "The Laughing Song")
TTITLE19=George W. Johnson - Listen to the Mocking Bird
TTITLE20=George W. Johnson - The Laughing Coon
TTITLE21=George W. Johnson - The Whistling Girl
TTITLE22=Williams And Walker - My Little Zulu Babe
TTITLE23=George W. Johnson - Carving the Duck
TTITLE24=Len Spencer and George W. Johnson - The Merry Mail Man
TTITLE25=Bert Williams - Nobody
TTITLE26=Jack Johnson - My Own Story of the Big Fight (Part 1)
TTITLE27=Opal Cooper - Beans, Beans, Beans
TTITLE28=Noble Sissle - Great Camp Meetin' Day
EXTD=
EXTT0=
EXTT1=
EXTT2=
EXTT3=
EXTT4=
EXTT5=
EXTT6=
EXTT7=
EXTT8=
EXTT9=
EXTT10=
EXTT11=
EXTT12=
EXTT13=
EXTT14=
EXTT15=
EXTT16=
EXTT17=
EXTT18=
EXTT19=
EXTT20=
EXTT21=
EXTT22=
EXTT23=
EXTT24=
EXTT25=
EXTT26=
EXTT27=
EXTT28=
PLAYORDER=
